<svg xmlns="http://www.w3.org/2000/svg" xmlns:xlink="http://www.w3.org/1999/xlink" width="500" zoomAndPan="magnify" viewBox="0 0 375 74.999997" height="100" preserveAspectRatio="xMidYMid meet" version="1.0"><defs><g/><clipPath id="e08530537d"><path d="M 19.621094 4.636719 L 84.757812 4.636719 L 84.757812 69.769531 L 19.621094 69.769531 Z M 19.621094 4.636719 " clip-rule="nonzero"/></clipPath><clipPath id="08a8ef938f"><path d="M 52.1875 4.636719 C 34.203125 4.636719 19.621094 19.21875 19.621094 37.203125 C 19.621094 55.1875 34.203125 69.769531 52.1875 69.769531 C 70.175781 69.769531 84.757812 55.1875 84.757812 37.203125 C 84.757812 19.21875 70.175781 4.636719 52.1875 4.636719 Z M 52.1875 4.636719 " clip-rule="nonzero"/></clipPath></defs><g clip-path="url(#e08530537d)"><g clip-path="url(#08a8ef938f)"><path fill="#ffffff" d="M 19.621094 4.636719 L 84.757812 4.636719 L 84.757812 69.769531 L 19.621094 69.769531 Z M 19.621094 4.636719 " fill-opacity="1" fill-rule="nonzero"/></g></g><g fill="#000000" fill-opacity="1"><g transform="translate(24.75081, 62.87493)"><g/></g></g><g fill="#000000" fill-opacity="1"><g transform="translate(46.779257, 62.87493)"><g/></g></g><g fill="#000000" fill-opacity="1"><g transform="translate(68.807705, 62.87493)"><g/></g></g><g fill="#000000" fill-opacity="1"><g transform="translate(90.83634, 62.87493)"><g/></g></g><g fill="#ffffff" fill-opacity="1"><g transform="translate(90.83634, 62.87493)"><g><path d="M 31.703125 -51.75 C 36.003906 -51.75 39.859375 -50.796875 43.265625 -48.890625 C 46.671875 -46.992188 49.347656 -44.375 51.296875 -41.03125 C 53.242188 -37.695312 54.21875 -34.128906 54.21875 -30.328125 C 54.21875 -25.117188 52.804688 -20.164062 49.984375 -15.46875 C 47.171875 -10.78125 43.363281 -7.03125 38.5625 -4.21875 C 33.757812 -1.40625 28.75 0 23.53125 0 L 4.390625 0 L 12.5625 -51.75 Z M 19.625 -11.390625 L 22.234375 -11.390625 C 27.679688 -11.390625 32.015625 -13 35.234375 -16.21875 C 38.460938 -19.445312 40.078125 -23.625 40.078125 -28.75 C 40.078125 -32.226562 38.988281 -35.03125 36.8125 -37.15625 C 34.644531 -39.28125 31.410156 -40.34375 27.109375 -40.34375 L 24.21875 -40.34375 Z M 19.625 -11.390625 "/></g></g></g><g fill="#ffffff" fill-opacity="1"><g transform="translate(140.932298, 62.87493)"><g><path d="M 33.015625 -51.75 C 37.679688 -51.75 41.421875 -50.648438 44.234375 -48.453125 C 47.046875 -46.253906 48.453125 -43.097656 48.453125 -38.984375 C 48.453125 -34.585938 47.144531 -30.707031 44.53125 -27.34375 C 41.925781 -23.976562 38.585938 -21.929688 34.515625 -21.203125 L 47.421875 0 L 30.671875 0 L 21.140625 -19.90625 L 21 -19.90625 L 17.84375 0 L 4.390625 0 L 12.5625 -51.75 Z M 22.375 -28.546875 L 24.21875 -28.546875 C 27.375 -28.546875 29.820312 -29.207031 31.5625 -30.53125 C 33.300781 -31.863281 34.171875 -33.8125 34.171875 -36.375 C 34.171875 -39.757812 31.378906 -41.453125 25.796875 -41.453125 L 24.4375 -41.453125 Z M 22.375 -28.546875 "/></g></g></g><g fill="#ffffff" fill-opacity="1"><g transform="translate(186.087276, 62.87493)"><g><path d="M 26.015625 -51.75 L 19.625 -11.390625 L 35.75 -11.390625 L 33.96875 0 L 4.390625 0 L 12.5625 -51.75 Z M 26.015625 -51.75 "/></g></g></g><g fill="#ffffff" fill-opacity="1"><g transform="translate(218.546687, 62.87493)"><g><path d="M 26.015625 -51.75 L 17.84375 0 L 4.390625 0 L 12.5625 -51.75 Z M 26.015625 -51.75 "/></g></g></g><g fill="#ffffff" fill-opacity="1"><g transform="translate(239.271266, 62.87493)"><g><path d="M 26.015625 -51.75 L 45.640625 -20.109375 L 45.765625 -20.109375 L 50.78125 -51.75 L 64.234375 -51.75 L 56.0625 0 L 42.609375 0 L 22.984375 -31.703125 L 22.859375 -31.703125 L 17.84375 0 L 4.390625 0 L 12.5625 -51.75 Z M 26.015625 -51.75 "/></g></g></g><g fill="#ffffff" fill-opacity="1"><g transform="translate(298.21982, 62.87493)"><g><path d="M 26.015625 -51.75 L 22.640625 -30.40625 L 22.78125 -30.40625 L 42.40625 -51.75 L 59.09375 -51.75 L 34.65625 -27.25 L 52.765625 0 L 35.34375 0 L 21.546875 -22.4375 L 21.40625 -22.4375 L 17.84375 0 L 4.390625 0 L 12.5625 -51.75 Z M 26.015625 -51.75 "/></g></g></g><g fill="#ffffff" fill-opacity="1"><g transform="translate(348.73306, 62.87493)"><g/></g></g><g fill="#000000" fill-opacity="1"><g transform="translate(15.54892, 98.041232)"><g><path d="M 65.71875 -76.984375 C 64.144531 -79.597656 62.265625 -81.601562 60.078125 -83 C 57.898438 -84.394531 55.285156 -85.09375 52.234375 -85.09375 C 48.742188 -85.09375 45.535156 -83.804688 42.609375 -81.234375 C 39.691406 -78.660156 38.234375 -75.671875 38.234375 -72.265625 C 38.234375 -70.085938 39.125 -68.191406 40.90625 -66.578125 C 42.695312 -64.960938 45.617188 -63.257812 49.671875 -61.46875 C 53.734375 -59.675781 56.46875 -58.34375 57.875 -57.46875 C 60.488281 -56.25 62.863281 -54.59375 65 -52.5 C 67.132812 -50.40625 68.726562 -48.023438 69.78125 -45.359375 C 70.832031 -42.703125 71.359375 -39.929688 71.359375 -37.046875 C 71.359375 -31.722656 70.304688 -26.484375 68.203125 -21.328125 C 66.109375 -16.179688 63.25 -11.796875 59.625 -8.171875 C 56.007812 -4.554688 52 -1.851562 47.59375 -0.0625 C 43.1875 1.726562 38.320312 2.625 33 2.625 C 26.1875 2.625 20.550781 0.859375 16.09375 -2.671875 C 11.644531 -6.210938 8.15625 -10.863281 5.625 -16.625 L 20.03125 -28.796875 C 20.988281 -24.347656 22.882812 -20.835938 25.71875 -18.265625 C 28.5625 -15.691406 31.816406 -14.40625 35.484375 -14.40625 C 39.585938 -14.40625 43.144531 -16.082031 46.15625 -19.4375 C 49.164062 -22.800781 50.671875 -26.617188 50.671875 -30.890625 C 50.671875 -33.773438 49.773438 -36.175781 47.984375 -38.09375 C 46.191406 -40.019531 43.289062 -41.765625 39.28125 -43.328125 C 31.769531 -46.296875 26.3125 -49.546875 22.90625 -53.078125 C 19.507812 -56.617188 17.8125 -61.097656 17.8125 -66.515625 C 17.8125 -72.441406 19.289062 -78.066406 22.25 -83.390625 C 25.21875 -88.722656 29.34375 -93.046875 34.625 -96.359375 C 39.90625 -99.671875 45.601562 -101.328125 51.71875 -101.328125 C 56.34375 -101.328125 61.050781 -100.300781 65.84375 -98.25 C 70.644531 -96.207031 74.3125 -93.570312 76.84375 -90.34375 Z M 65.71875 -76.984375 "/></g></g></g></svg>