<svg xmlns="http://www.w3.org/2000/svg" height="24px" viewBox="0 -960 960 960" width="24px" fill="#e3e3e3"><path d="M176-132h-4v-28h4q40 0 78.5-12.5T328-208q33 23 70.5 34.5T478-162q42 0 79.5-11.5T628-208q35 23 73.5 35.5T780-160h8v28h-8q-39 0-77-9t-75-28q-35 18-73.5 27.5T478-132q-38 0-76.5-9.5T328-169q-37 19-75 28t-77 9Zm303-130q-37 0-69.5-21T329-358q-36 41-60.5 60.5T214-264l-52-194q-3-11 2.33-21.61 5.34-10.6 16.67-14.39l46-16v-178q0-24.75 17.63-42.38Q262.25-748 287-748h128v-80h128v80h128q24.75 0 42.38 17.62Q731-712.75 731-688v178l46 16q11.33 3.79 16.67 14.39Q799-469 796-458l-52 194q-30-14-54.5-33.5T629-358q-48 54-80.5 75T479-262Zm1-28q41 0 70.5-27.5T607-376l23-26 23 27q17 20 34 38.5t40 30.5l41-162-290-92-288 92 41 162q23-12 40-30.5t34-38.5l23-27 23 26q27 31 57.5 58.5T480-290ZM253-519l225-71 225 71v-201H253v201Zm226 94Z"/></svg>